<svg xmlns="http://www.w3.org/2000/svg" xmlns:xlink="http://www.w3.org/1999/xlink" width="64" height="64" enable-background="new" version="1.0"><defs><linearGradient id="linearGradient4266" x1="291" x2="349" y1="172" y2="172" gradientTransform="matrix(0,-1,1,0,-140,352)" gradientUnits="userSpaceOnUse"><stop offset="0" stop-color="#333127"/><stop offset="1" stop-color="#57564f"/></linearGradient></defs><metadata/><rect width="60" height="60" x="2" y="3" color="#bebebe" enable-background="accumulate" opacity=".1" ry="12.5"/><path fill="url(#linearGradient4266)" d="m14.5 2.5c-6.655 0-12 5.345-12 12v35c0 6.655 5.345 12 12 12h35c6.655 0 12-5.345 12-12v-35c0-6.655-5.345-12-12-12h-35z" color="#bebebe" enable-background="accumulate"/><path d="m18 19 28 14-28 14z" enable-background="new" opacity=".2"/><path fill="#f0efdf" d="m18 18 28 14-28 14z" enable-background="new"/><path fill="#fff" d="m14.5 3c-6.3883 0-11.5 5.1117-11.5 11.5v1c0-6.3883 5.1117-11.5 11.5-11.5h35c6.388 0 11.5 5.1117 11.5 11.5v-1c0-6.3883-5.112-11.5-11.5-11.5h-35z" color="#bebebe" enable-background="accumulate" opacity=".13"/><path d="m49.5 62c6.388 0 11.5-5.112 11.5-11.5v-1c0 6.388-5.112 11.5-11.5 11.5h-35c-6.3883 0-11.5-5.112-11.5-11.5v1c0 6.388 5.1117 11.5 11.5 11.5h35z" color="#bebebe" enable-background="accumulate" opacity=".41"/><path fill="#fff" d="m14.5 61c-6.3883 0-11.5-5.112-11.5-11.5v-1c0 6.388 5.1117 11.5 11.5 11.5h35c6.388 0 11.5-5.112 11.5-11.5v1c0 6.388-5.112 11.5-11.5 11.5h-35z" color="#bebebe" enable-background="accumulate" opacity=".1"/><path d="m14.5 2c-6.925 0-12.5 5.575-12.5 12.5v35c0 6.925 5.575 12.5 12.5 12.5h35c6.925 0 12.5-5.575 12.5-12.5v-35c0-6.925-5.575-12.5-12.5-12.5h-35zm0 1h35c6.388 0 11.5 5.1117 11.5 11.5v35c0 6.388-5.112 11.5-11.5 11.5h-35c-6.3883 0-11.5-5.112-11.5-11.5v-35c0-6.3883 5.1117-11.5 11.5-11.5z" color="#bebebe" enable-background="accumulate" opacity=".41"/></svg>