<svg xmlns="http://www.w3.org/2000/svg" xmlns:xlink="http://www.w3.org/1999/xlink" width="64" height="64" enable-background="new" version="1.0"><defs><linearGradient id="linearGradient11220" x1="291" x2="349" y1="172" y2="172" gradientTransform="matrix(0,-1,1,0,-140,352)" gradientUnits="userSpaceOnUse"><stop offset="0" stop-color="#737667"/><stop offset="1" stop-color="#b5b8aa"/></linearGradient></defs><metadata/><rect width="60" height="60" x="2" y="3" color="#bebebe" enable-background="accumulate" opacity=".1" ry="12.5"/><path fill="url(#linearGradient11220)" d="m14.5 2.5c-6.66 0-12 5.34-12 12v35c0 6.66 5.34 12 12 12h35c6.66 0 12-5.34 12-12v-35c0-6.66-5.34-12-12-12h-35z" color="#bebebe" enable-background="accumulate"/><path fill-rule="evenodd" d="m18 16c-0.83969 0-1 2-2 2h-1.5625c-1.35 0-2.44 1.09-2.44 2.44v25.125c0 1.3504 1.0871 2.4375 2.4375 2.4375h35.125c1.3504 0 2.4375-1.0871 2.4375-2.4375v-25.125c0-1.35-1.09-2.44-2.44-2.44h-21.56c-0.83969 0-0.93934-1.9558-2-2zm0 4h8v2h-8zm19 4c4.9706 0 9 4.0294 9 9s-4.0294 9-9 9-9-4.0294-9-9 4.0294-9 9-9zm0 4c-2.7614 0-5 2.2386-5 5s2.2386 5 5 5 5-2.2386 5-5-2.2386-5-5-5z" color="#000" enable-background="new" opacity=".2"/><path fill="#fff" fill-rule="evenodd" d="m18 15c-0.83969 0-1 2-2 2h-1.5625c-1.35 0-2.44 1.09-2.44 2.44v25.125c0 1.3504 1.0871 2.4375 2.4375 2.4375h35.125c1.3504 0 2.4375-1.0871 2.4375-2.4375v-25.125c0-1.35-1.09-2.44-2.44-2.44h-21.56c-0.83969 0-0.93934-1.9558-2-2zm0 4h8v2h-8zm19 4c4.9706 0 9 4.0294 9 9s-4.0294 9-9 9-9-4.0294-9-9 4.0294-9 9-9zm0 4c-2.7614 0-5 2.2386-5 5s2.2386 5 5 5 5-2.2386 5-5-2.2386-5-5-5z" color="#000" enable-background="new"/><path fill="#fff" d="m14.5 3c-6.3883 0-11.5 5.1117-11.5 11.5v1c0-6.3883 5.1117-11.5 11.5-11.5h35c6.388 0 11.5 5.1117 11.5 11.5v-1c0-6.3883-5.112-11.5-11.5-11.5h-35z" color="#bebebe" enable-background="accumulate" opacity=".13"/><path d="m49.5 62c6.388 0 11.5-5.112 11.5-11.5v-1c0 6.388-5.112 11.5-11.5 11.5h-35c-6.3883 0-11.5-5.112-11.5-11.5v1c0 6.388 5.1117 11.5 11.5 11.5h35z" color="#bebebe" enable-background="accumulate" opacity=".41"/><path fill="#fff" d="m14.5 61c-6.3883 0-11.5-5.112-11.5-11.5v-1c0 6.388 5.1117 11.5 11.5 11.5h35c6.388 0 11.5-5.112 11.5-11.5v1c0 6.388-5.112 11.5-11.5 11.5h-35z" color="#bebebe" enable-background="accumulate" opacity=".1"/><path d="m14.5 2c-6.925 0-12.5 5.575-12.5 12.5v35c0 6.925 5.575 12.5 12.5 12.5h35c6.925 0 12.5-5.575 12.5-12.5v-35c0-6.925-5.575-12.5-12.5-12.5h-35zm0 1h35c6.388 0 11.5 5.1117 11.5 11.5v35c0 6.388-5.112 11.5-11.5 11.5h-35c-6.3883 0-11.5-5.112-11.5-11.5v-35c0-6.3883 5.1117-11.5 11.5-11.5z" color="#bebebe" enable-background="accumulate" opacity=".41"/></svg>