<svg xmlns="http://www.w3.org/2000/svg" xmlns:xlink="http://www.w3.org/1999/xlink" width="64" height="64" enable-background="new" version="1.0"><defs><linearGradient id="linearGradient4002" x1="291" x2="349" y1="172" y2="172" gradientTransform="matrix(0,-1,1,0,-140,352)" gradientUnits="userSpaceOnUse" xlink:href="#outerBackgroundGradient-7"/><clipPath id="clipPath4384" clipPathUnits="userSpaceOnUse"><rect width="36" height="14" x="318" y="184" color="#bebebe" enable-background="accumulate" opacity="0" ry="7"/></clipPath><linearGradient id="outerBackgroundGradient-7"><stop offset="0" stop-color="#ddd"/><stop offset="1" stop-color="#f2f2f2"/></linearGradient><linearGradient id="linearGradient4914" x1="328" x2="328" y1="235" y2="277" gradientTransform="matrix(1.5,0,0,1.5,-460,-352)" gradientUnits="userSpaceOnUse"><stop offset="0" stop-color="#aaa"/><stop offset="1" stop-color="#767676"/></linearGradient><linearGradient id="linearGradient4916" x1="324" x2="324" y1="231" y2="273" gradientTransform="matrix(1.5,0,0,1.5,-460,-346)" gradientUnits="userSpaceOnUse"><stop offset="0" stop-color="#cd5fc2"/><stop offset="1" stop-color="#9a4993"/></linearGradient><linearGradient id="linearGradient4918" x1="336" x2="336" y1="273" y2="231" gradientTransform="matrix(1.5,0,0,1.5,-460,-346)" gradientUnits="userSpaceOnUse" xlink:href="#outerBackgroundGradient-7"/></defs><metadata/><rect width="60" height="60" x="2" y="3" color="#bebebe" enable-background="accumulate" opacity=".15" ry="12.5"/><path fill="url(#linearGradient4002)" d="m14.5 3c-6.39 0-11.5 5.11-11.5 11.5v35c0 6.39 5.11 11.5 11.5 11.5h35c6.39 0 11.5-5.11 11.5-11.5v-35c0-6.39-5.11-11.5-11.5-11.5h-35z" color="#bebebe" enable-background="accumulate"/><path d="m14.5 2c-6.925 0-12.5 5.575-12.5 12.5v35c0 6.925 5.575 12.5 12.5 12.5h35c6.925 0 12.5-5.575 12.5-12.5v-35c0-6.925-5.575-12.5-12.5-12.5h-35zm0 1h35c6.388 0 11.5 5.1117 11.5 11.5v35c0 6.388-5.112 11.5-11.5 11.5h-35c-6.3883 0-11.5-5.112-11.5-11.5v-35c0-6.3883 5.1117-11.5 11.5-11.5z" color="#bebebe" enable-background="accumulate" opacity=".41"/><g fill="#fff"><rect width="36" height="14" x="14" y="37" color="#bebebe" enable-background="accumulate" ry="7"/><rect width="36" height="14" x="14" y="15" color="#bebebe" enable-background="accumulate" ry="6.75"/><rect width="21" height="12" x="28" y="17" color="#bebebe" enable-background="accumulate" opacity=".1" ry="6"/><rect width="21" height="12" x="28" y="16" color="#bebebe" enable-background="accumulate" ry="6"/><rect width="21" height="12" x="15" y="39" color="#bebebe" enable-background="accumulate" opacity=".1" ry="6"/><rect width="21" height="12" x="15" y="38" color="#bebebe" enable-background="accumulate" ry="6"/></g><rect width="36" height="14" x="318" y="184" clip-path="url(#clipPath4384)" color="#bebebe" enable-background="accumulate" opacity="0" ry="7" transform="translate(-304,-147)"/><rect width="36" height="14" x="318" y="184" stroke-width="2" clip-path="url(#clipPath4384)" color="#bebebe" enable-background="accumulate" opacity="0" ry="7" transform="translate(-304,-147)"/><rect width="36" height="14" x="318" y="184" stroke-width="2" clip-path="url(#clipPath4384)" color="#bebebe" enable-background="accumulate" opacity="0" ry="7" transform="translate(-304,-169)"/><rect width="36" height="14" x="318" y="184" clip-path="url(#clipPath4384)" color="#bebebe" enable-background="accumulate" opacity="0" ry="7" transform="translate(-304,-169)"/><rect width="36" height="14" x="14" y="36" fill="url(#linearGradient4914)" color="#bebebe" enable-background="accumulate" ry="7"/><rect width="36" height="14" x="14" y="14" fill="url(#linearGradient4916)" color="#bebebe" enable-background="accumulate" ry="6.75"/><rect width="21" height="12" x="28" y="16" color="#bebebe" enable-background="accumulate" opacity=".15" ry="6"/><rect width="21" height="12" x="28" y="15" fill="url(#linearGradient4918)" color="#bebebe" enable-background="accumulate" ry="6"/><rect width="21" height="12" x="15" y="38" color="#bebebe" enable-background="accumulate" opacity=".15" ry="6"/><rect width="21" height="12" x="15" y="37" fill="url(#linearGradient4918)" color="#bebebe" enable-background="accumulate" ry="6"/><rect width="36" height="14" x="318" y="184" clip-path="url(#clipPath4384)" color="#bebebe" enable-background="accumulate" opacity="0" ry="7" transform="translate(-304,-148)"/><rect width="36" height="14" x="318" y="184" stroke-width="2" clip-path="url(#clipPath4384)" color="#bebebe" enable-background="accumulate" opacity="0" ry="7" transform="translate(-304,-148)"/><rect width="36" height="14" x="318" y="184" stroke-width="2" clip-path="url(#clipPath4384)" color="#bebebe" enable-background="accumulate" opacity="0" ry="7" transform="translate(-304,-170)"/><rect width="36" height="14" x="318" y="184" clip-path="url(#clipPath4384)" color="#bebebe" enable-background="accumulate" opacity="0" ry="7" transform="translate(-304,-170)"/><path fill="#fff" d="m14.5 3c-6.3883 0-11.5 5.1117-11.5 11.5v1c0-6.3883 5.1117-11.5 11.5-11.5h35c6.388 0 11.5 5.1117 11.5 11.5v-1c0-6.3883-5.112-11.5-11.5-11.5h-35z" color="#bebebe" enable-background="accumulate" opacity=".13"/><path d="m49.5 62c6.388 0 11.5-5.112 11.5-11.5v-1c0 6.388-5.112 11.5-11.5 11.5h-35c-6.3883 0-11.5-5.112-11.5-11.5v1c0 6.388 5.1117 11.5 11.5 11.5h35z" color="#bebebe" enable-background="accumulate" opacity=".13"/><path fill="#fff" d="m14.5 61c-6.3883 0-11.5-5.112-11.5-11.5v-1c0 6.388 5.1117 11.5 11.5 11.5h35c6.388 0 11.5-5.112 11.5-11.5v1c0 6.388-5.112 11.5-11.5 11.5h-35z" color="#bebebe" enable-background="accumulate" opacity=".1"/></svg>