<svg xmlns="http://www.w3.org/2000/svg" xmlns:xlink="http://www.w3.org/1999/xlink" width="64" height="64" enable-background="new" version="1.0"><defs><linearGradient id="linearGradient11220" x1="291" x2="349" y1="172" y2="172" gradientTransform="matrix(0,-1,1,0,-140,352)" gradientUnits="userSpaceOnUse"><stop offset="0" stop-color="#e5e5e5"/><stop offset="1" stop-color="#f2f2f2"/></linearGradient><linearGradient id="linearGradient4026" x1="463" x2="463" y1="41" y2="71" gradientTransform="matrix(2,0,0,2,-864,-80)" gradientUnits="userSpaceOnUse"><stop offset="0" stop-color="#729fcf"/><stop offset="1" stop-color="#4777ab"/></linearGradient></defs><metadata/><rect width="60" height="60" x="2" y="3" color="#bebebe" enable-background="accumulate" opacity=".1" ry="12.5"/><path fill="url(#linearGradient11220)" d="m14.5 2.5c-6.66 0-12 5.34-12 12v35c0 6.66 5.34 12 12 12h35c6.66 0 12-5.34 12-12v-35c0-6.66-5.34-12-12-12h-35z" color="#bebebe" enable-background="accumulate"/><path fill="url(#linearGradient4026)" d="m32 12c-11.069 0-20 8.931-20 20s8.931 20 20 20 20-8.931 20-20-8.931-20-20-20zm-9.25 10h2.5c0.42616 0 0.75 0.3303 0.75 0.75v2.5c0 0.42-0.324 0.75-0.75 0.75h-2.5c-0.426 0-0.75-0.33-0.75-0.75v-2.5c0-0.42 0.324-0.75 0.75-0.75zm8 0h2.5c0.42616 0 0.75 0.3303 0.75 0.75v2.5c0 0.42-0.324 0.75-0.75 0.75h-2.5c-0.426 0-0.75-0.33-0.75-0.75v-2.5c0-0.42 0.324-0.75 0.75-0.75zm8 0h2.5c0.42616 0 0.75 0.3303 0.75 0.75v2.5c0 0.42-0.324 0.75-0.75 0.75h-2.5c-0.426 0-0.75-0.33-0.75-0.75v-2.5c0-0.42 0.324-0.75 0.75-0.75zm-16.25 8.062c0.092-0.0382 0.1434 0 0.25 0h2.5c0.42616 0 0.75 0.3303 0.75 0.75v2.4375c0 0.4197-0.32384 0.8125-0.75 0.8125h-2.5c-0.426 0-0.75-0.392-0.75-0.812v-2.4375c0-0.31477 0.22372-0.6353 0.5-0.75zm8 0c0.092-0.0382 0.1434 0 0.25 0h2.5c0.42616 0 0.75 0.3303 0.75 0.75v2.4375c0 0.4197-0.32384 0.8125-0.75 0.8125h-2.5c-0.426 0-0.75-0.392-0.75-0.812v-2.4375c0-0.31477 0.22372-0.6353 0.5-0.75zm8 0c0.092-0.0382 0.1434 0 0.25 0h2.5c0.42616 0 0.75 0.3303 0.75 0.75v2.4375c0 0.4197-0.32384 0.8125-0.75 0.8125h-2.5c-0.426 0-0.75-0.392-0.75-0.812v-2.4375c0-0.31477 0.22372-0.6353 0.5-0.75zm-15.75 7.94h2.5c0.42616 0 0.75 0.3303 0.75 0.75v2.5c0 0.4197-0.32384 0.75-0.75 0.75h-2.5c-0.42616 0-0.75-0.3303-0.75-0.75v-2.5c0-0.4197 0.32384-0.75 0.75-0.75zm8 0h2.5c0.42616 0 0.75 0.3303 0.75 0.75v2.5c0 0.4197-0.32384 0.75-0.75 0.75h-2.5c-0.42616 0-0.75-0.3303-0.75-0.75v-2.5c0-0.4197 0.32384-0.75 0.75-0.75zm8 0h2.5c0.42616 0 0.75 0.3303 0.75 0.75v2.5c0 0.4197-0.32384 0.75-0.75 0.75h-2.5c-0.42616 0-0.75-0.3303-0.75-0.75v-2.5c0-0.4197 0.32384-0.75 0.75-0.75z" color="#000" enable-background="accumulate"/><path d="m32 12c-11.069 0-20 8.9306-20 20 0 0.16756-0.004 0.33344 0 0.5 0.265-10.837 9.098-19.5 20-19.5s19.735 8.664 20 19.5c0.004-0.167 0-0.332 0-0.5 0-11.069-8.931-20-20-20zm-10 13.25v1c0 0.4197 0.32384 0.75 0.75 0.75h2.5c0.426 0 0.75-0.33 0.75-0.75v-1c0 0.42-0.324 0.75-0.75 0.75h-2.5c-0.426 0-0.75-0.33-0.75-0.75zm8 0v1c0 0.4197 0.32384 0.75 0.75 0.75h2.5c0.426 0 0.75-0.33 0.75-0.75v-1c0 0.42-0.324 0.75-0.75 0.75h-2.5c-0.426 0-0.75-0.33-0.75-0.75zm8 0v1c0 0.4197 0.32384 0.75 0.75 0.75h2.5c0.426 0 0.75-0.33 0.75-0.75v-1c0 0.42-0.324 0.75-0.75 0.75h-2.5c-0.426 0-0.75-0.33-0.75-0.75zm-16 8v1c0 0.4197 0.32384 0.8125 0.75 0.8125h2.5c0.42616 0 0.75-0.3928 0.75-0.8125v-1c0 0.4197-0.32384 0.8125-0.75 0.8125h-2.5c-0.426 0-0.75-0.392-0.75-0.812zm8 0v1c0 0.4197 0.32384 0.8125 0.75 0.8125h2.5c0.42616 0 0.75-0.3928 0.75-0.8125v-1c0 0.4197-0.32384 0.8125-0.75 0.8125h-2.5c-0.426 0-0.75-0.392-0.75-0.812zm8 0v1c0 0.4197 0.32384 0.8125 0.75 0.8125h2.5c0.42616 0 0.75-0.3928 0.75-0.8125v-1c0 0.4197-0.32384 0.8125-0.75 0.8125h-2.5c-0.426 0-0.75-0.392-0.75-0.812zm-16 8v1c0 0.4197 0.32384 0.75 0.75 0.75h2.5c0.426 0 0.75-0.33 0.75-0.75v-1c0 0.42-0.324 0.75-0.75 0.75h-2.5c-0.426 0-0.75-0.33-0.75-0.75zm8 0v1c0 0.4197 0.32384 0.75 0.75 0.75h2.5c0.426 0 0.75-0.33 0.75-0.75v-1c0 0.42-0.324 0.75-0.75 0.75h-2.5c-0.426 0-0.75-0.33-0.75-0.75zm8 0v1c0 0.4197 0.32384 0.75 0.75 0.75h2.5c0.426 0 0.75-0.33 0.75-0.75v-1c0 0.42-0.324 0.75-0.75 0.75h-2.5c-0.426 0-0.75-0.33-0.75-0.75z" color="#000" enable-background="accumulate" opacity=".2"/><path fill="#fff" d="m14.5 3c-6.3883 0-11.5 5.1117-11.5 11.5v1c0-6.3883 5.1117-11.5 11.5-11.5h35c6.388 0 11.5 5.1117 11.5 11.5v-1c0-6.3883-5.112-11.5-11.5-11.5h-35z" color="#bebebe" enable-background="accumulate" opacity=".13"/><path d="m49.5 62c6.388 0 11.5-5.112 11.5-11.5v-1c0 6.388-5.112 11.5-11.5 11.5h-35c-6.3883 0-11.5-5.112-11.5-11.5v1c0 6.388 5.1117 11.5 11.5 11.5h35z" color="#bebebe" enable-background="accumulate" opacity=".41"/><path fill="#fff" d="m14.5 61c-6.3883 0-11.5-5.112-11.5-11.5v-1c0 6.388 5.1117 11.5 11.5 11.5h35c6.388 0 11.5-5.112 11.5-11.5v1c0 6.388-5.112 11.5-11.5 11.5h-35z" color="#bebebe" enable-background="accumulate" opacity=".1"/><path d="m14.5 2c-6.925 0-12.5 5.575-12.5 12.5v35c0 6.925 5.575 12.5 12.5 12.5h35c6.925 0 12.5-5.575 12.5-12.5v-35c0-6.925-5.575-12.5-12.5-12.5h-35zm0 1h35c6.388 0 11.5 5.1117 11.5 11.5v35c0 6.388-5.112 11.5-11.5 11.5h-35c-6.3883 0-11.5-5.112-11.5-11.5v-35c0-6.3883 5.1117-11.5 11.5-11.5z" color="#bebebe" enable-background="accumulate" opacity=".41"/></svg>