<svg xmlns="http://www.w3.org/2000/svg" xmlns:xlink="http://www.w3.org/1999/xlink" width="64" height="64" enable-background="new" version="1.0"><defs><linearGradient id="linearGradient4002" x1="291" x2="349" y1="172" y2="172" gradientTransform="matrix(0,-1,1,0,-140,352)" gradientUnits="userSpaceOnUse"><stop offset="0" stop-color="#d6d5c7"/><stop offset="1" stop-color="#f8f9ec"/></linearGradient></defs><metadata/><rect width="60" height="60" x="2" y="3" color="#bebebe" enable-background="accumulate" opacity=".15" ry="12.5"/><path fill="url(#linearGradient4002)" d="m14.5 3c-6.39 0-11.5 5.11-11.5 11.5v35c0 6.39 5.11 11.5 11.5 11.5h35c6.39 0 11.5-5.11 11.5-11.5v-35c0-6.39-5.11-11.5-11.5-11.5h-35z" color="#bebebe" enable-background="accumulate"/><path d="m14.5 2c-6.925 0-12.5 5.575-12.5 12.5v35c0 6.925 5.575 12.5 12.5 12.5h35c6.925 0 12.5-5.575 12.5-12.5v-35c0-6.925-5.575-12.5-12.5-12.5h-35zm0 1h35c6.388 0 11.5 5.1117 11.5 11.5v35c0 6.388-5.112 11.5-11.5 11.5h-35c-6.3883 0-11.5-5.112-11.5-11.5v-35c0-6.3883 5.1117-11.5 11.5-11.5z" color="#bebebe" enable-background="accumulate" opacity=".41"/><g fill="#fff"><path d="m21 39.02c-3.866 0-7 3.134-7 7s3.134 7 7 7 7-3.134 7-7-3.134-7-7-7z" color="#bebebe" enable-background="accumulate"/><path d="m50 13.98-24 3.501v28.5h2v-22.365l20-2.7505v22.115h2v-25z" color="#000" enable-background="accumulate" style="block-progression:tb;text-transform:none;text-indent:0"/><path d="m43 36.14c-3.866 0-7 3.134-7 7s3.134 7 7 7 7-3.134 7-7-3.134-7-7-7z" color="#bebebe" enable-background="accumulate"/></g><g fill="#2d2d2d"><path d="m21 38.02c-3.866 0-7 3.134-7 7s3.134 7 7 7 7-3.134 7-7-3.134-7-7-7z" color="#bebebe" enable-background="accumulate"/><path d="m50 12.98-24 3.501v28.5h2v-22.365l20-2.7505v22.115h2v-25z" color="#000" enable-background="accumulate" style="block-progression:tb;text-transform:none;text-indent:0"/><path d="m43 35.14c-3.866 0-7 3.134-7 7s3.134 7 7 7 7-3.134 7-7-3.134-7-7-7z" color="#bebebe" enable-background="accumulate"/></g><path fill="#fff" d="m14.5 3c-6.3883 0-11.5 5.1117-11.5 11.5v1c0-6.3883 5.1117-11.5 11.5-11.5h35c6.388 0 11.5 5.1117 11.5 11.5v-1c0-6.3883-5.112-11.5-11.5-11.5h-35z" color="#bebebe" enable-background="accumulate" opacity=".13"/><path d="m49.5 62c6.388 0 11.5-5.112 11.5-11.5v-1c0 6.388-5.112 11.5-11.5 11.5h-35c-6.3883 0-11.5-5.112-11.5-11.5v1c0 6.388 5.1117 11.5 11.5 11.5h35z" color="#bebebe" enable-background="accumulate" opacity=".13"/><path fill="#fff" d="m14.5 61c-6.3883 0-11.5-5.112-11.5-11.5v-1c0 6.388 5.1117 11.5 11.5 11.5h35c6.388 0 11.5-5.112 11.5-11.5v1c0 6.388-5.112 11.5-11.5 11.5h-35z" color="#bebebe" enable-background="accumulate" opacity=".1"/></svg>